<?xml version="1.0" encoding="UTF-8"?>
<svg id="Layer_2" data-name="Layer 2" xmlns="http://www.w3.org/2000/svg" viewBox="0 0 235.47 234.49">
  <defs>
    <style>
      .cls-1 {
        fill: #1c2b25;
      }
    </style>
  </defs>
  <g id="Layer_1-2" data-name="Layer 1">
    <g>
      <path class="cls-1" d="M109.22,234.49l-4.65-15.35-14.47-2.45-7.5-2.23-10.65,11.04-17.04-8.08,3.45-16.59c-5.84-4.01-10.65-8.18-15.27-12.82l-15.9,6.02-10.32-14.65,10.18-14.08c-3.26-5.71-5.62-11.31-7.61-17.78l-16.74-2.47L.03,129.05c-.22-1.34.75-2.65,1.85-3.12l12.61-5.3,1.16-19.18-13.93-8.39,4.55-18.47,16.66.79,8.55-15.5-9.44-14.47,5.12-5.81,6.93-7.52,15.49,6.88,9.59-6.79,2.98-2.03-1.57-16.99,15.33-6.22,11.6,12.57,15.47-2.79L108.4.1l16.42-.1,5.29,16.7,16.55,2.78,11.03-12.49,14.87,6.4-1,16.8,12.86,8.82,15.67-7.12,11.36,13.53-8.34,13.97c3.49,5.12,6.12,10.38,8.64,16.02l16.37-.91,4.98,18.35-14.15,8.5,1.5,19.01,15.03,6.26-2.76,18.59-16.48,2.05c-1.87,6.28-4.11,11.95-7.12,17.52l10.48,15.02-10.15,14.37-16.59-6.34-14.84,12.81,2.98,16.79-16.8,8.19-10.96-11.25-21.5,4.66-4.61,15.44-17.88.02ZM120.91,203.15c11.84-.39,22.22-3.04,32.88-7.8,31.38-14.02,51.43-47.06,48.53-83.08-1.76-21.95-12.01-42.79-27.59-57.39s-35.13-21.74-55.8-21.92c-23.26-.2-43.75,6.32-60.72,22.93-20.54,20.1-30.14,49.53-24.36,78.57,3.57,17.98,12.52,34.5,25.7,46.58,17.08,15.66,38.72,22.86,61.36,22.12Z"/>
      <g>
        <path class="cls-1" d="M131.3,178.63l-2.02,14.56c-2.93.64-5.58,1.05-8.6.87l-14.41-.84-2.24-14.46c-7.71-1.64-14.76-4.25-21.15-8.57l-10.46,7.47c-6.95-4.65-12.59-10.44-17.58-17.01l9-11.2c-4.42-6.39-6.41-13.27-7.94-20.79l-13.63-2.14c-1.21-8.45-.45-16.05,1.1-24.39l13.35-1.26c2.28-6.34,4.73-12.66,8.94-18.51l-9.09-11.75c5.6-5.52,10.81-10.21,16.76-14.66,1.27-.95,3.02-.58,4.16.39l8.65,7.42c5.97-3.57,11.69-5.54,17.97-7.14l1.61-13.5c6.95-1.27,16.16-1.56,22.93,0l2.37,13.68c6,1.11,10.92,3.34,16.49,6.27l10.91-8.51c7.09,4.47,13.01,9.8,18.46,16.59l-9.28,11.21c1.83,2.52,4.09,5.54,5.45,8.61l4.43,9.94,13.52.99c2.24,8.18,2.47,15.73,1.76,24.29l-13.69,2.53c-.77,7.72-3.27,14.37-7.19,21.18l9.12,9.85c-3.55,6.13-8.74,11.33-14.11,16.18-1.51,1.36-3.42,1.84-5.09.57l-8.74-6.64c-6.24,4.56-13.68,7.74-21.75,8.75ZM119.21,168.12c25.08-.34,45.39-19.08,48.01-45.04,2.09-20.73-8.88-40.42-26.76-50.12-10.8-5.86-23.41-6.85-35.28-4.18-12.77,2.87-22.89,10.99-29.48,22.51-9.95,17.39-9.73,38.63,1.39,55.37,9.53,14.36,25.02,21.69,42.11,21.46Z"/>
        <path class="cls-1" d="M129.54,162.39c-20.57,4.94-42.82-4.02-52.31-23.92-7.71-16.15-5.39-34.9,4.8-49.25,8.19-11.54,20.81-17.5,34.54-17.59,20.68-.15,39.78,13.63,45.2,34.71,6.44,25.05-8.23,50.29-32.23,56.05ZM143.5,142.19c11.33-12.31,12.45-31,2.76-44.89-7.16-10.25-18.23-15.67-30.44-15.05s-22.81,6.82-28.49,18.11c-5.77,11.45-5.5,25.35.9,36.46,10.96,19.02,39.23,22.8,55.27,5.38Z"/>
      </g>
    </g>
  </g>
</svg>